HIERARCHY
ROOT Hips
{
 OFFSET 0.000000 0.000000 0.000000
 CHANNELS 6 Xposition Yposition Zposition Yrotation Xrotation Zrotation
 JOINT Chest
 {
  OFFSET 0.000000 10.354800 0.006500
  CHANNELS 3 Yrotation Xrotation Zrotation
  JOINT Chest2
  {
   OFFSET 0.000000 10.435800 -0.013200
   CHANNELS 3 Yrotation Xrotation Zrotation
   JOINT Chest3
   {
    OFFSET 0.000000 10.393700 0.000000
    CHANNELS 3 Yrotation Xrotation Zrotation
    JOINT Chest4
    {
     OFFSET 0.000000 10.383100 0.000000
     CHANNELS 3 Yrotation Xrotation Zrotation
     JOINT Neck
     {
      OFFSET 0.000000 15.694000 0.000000
      CHANNELS 3 Yrotation Xrotation Zrotation
      JOINT Head
      {
       OFFSET 0.000000 9.711000 -0.028000
       CHANNELS 3 Yrotation Xrotation Zrotation
       End Site
       {
        OFFSET 0.000000 18.578700 -0.014800
       }
      }
     }
     JOINT RightCollar
     {
      OFFSET -3.157200 10.367500 0.000000
      CHANNELS 3 Yrotation Xrotation Zrotation
      JOINT RightShoulder
      {
       OFFSET -14.482500 0.000000 0.000000
       CHANNELS 3 Yrotation Xrotation Zrotation
       JOINT RightElbow
       {
        OFFSET 0.000000 -31.707800 0.000000
        CHANNELS 3 Yrotation Xrotation Zrotation
        JOINT RightWrist
        {
         OFFSET 0.000000 -25.659300 0.000000
         CHANNELS 3 Yrotation Xrotation Zrotation
         End Site
         {
          OFFSET 0.000000 -18.994300 0.000000
         }
        }
       }
      }
     }
     JOINT LeftCollar
     {
      OFFSET 3.157200 10.367500 0.000000
      CHANNELS 3 Yrotation Xrotation Zrotation
      JOINT LeftShoulder
      {
       OFFSET 14.482500 0.000000 0.000000
       CHANNELS 3 Yrotation Xrotation Zrotation
       JOINT LeftElbow
       {
        OFFSET 0.000000 -31.707800 0.000000
        CHANNELS 3 Yrotation Xrotation Zrotation
        JOINT LeftWrist
        {
         OFFSET 0.000000 -25.659300 0.000000
         CHANNELS 3 Yrotation Xrotation Zrotation
         End Site
         {
          OFFSET 0.000000 -18.994300 0.000000
         }
        }
       }
      }
     }
    }
   }
  }
 }
 JOINT RightHip
 {
  OFFSET -8.365600 -0.032100 -0.003200
  CHANNELS 3 Yrotation Xrotation Zrotation
  JOINT RightKnee
  {
   OFFSET 0.000000 -43.980000 0.003100
   CHANNELS 3 Yrotation Xrotation Zrotation
   JOINT RightAnkle
   {
    OFFSET 0.000000 -42.882800 0.005200
    CHANNELS 3 Yrotation Xrotation Zrotation
    JOINT RightToe
    {
     OFFSET 0.000000 -4.915500 10.826300
     CHANNELS 3 Yrotation Xrotation Zrotation
     End Site
     {
      OFFSET 0.000000 -1.517500 6.175900
     }
    }
   }
  }
 }
 JOINT LeftHip
 {
  OFFSET 8.365600 -0.032100 -0.003200
  CHANNELS 3 Yrotation Xrotation Zrotation
  JOINT LeftKnee
  {
   OFFSET 0.000000 -43.980000 0.003100
   CHANNELS 3 Yrotation Xrotation Zrotation
   JOINT LeftAnkle
   {
    OFFSET 0.000000 -42.882800 0.005200
    CHANNELS 3 Yrotation Xrotation Zrotation
    JOINT LeftToe
    {
     OFFSET 0.000000 -4.915500 10.826300
     CHANNELS 3 Yrotation Xrotation Zrotation
     End Site
     {
      OFFSET 0.000000 -1.517500 6.175900
     }
    }
   }
  }
 }
}
MOTION
Frames: 10
Frame Time: 0.008333
87.066694 126.397881 117.509250 176.441778 -18.591902 -3.767513 -0.999368 11.034358 3.195412 -0.085702 0.771908 0.227680 -0.150796 1.313372 0.388912 -0.937428 10.117724 2.927759 -2.260836 21.725167 -2.483748 -1.858574 -2.511318 -2.148783 -1.968786 7.656941 -5.517611 -12.782431 -7.973690 -1.189975 -152.496154 -67.971431 160.007965 -15.420653 -9.776592 -23.911359 -0.379413 9.188746 0.906151 22.394737 1.193470 -3.758531 140.995718 -63.012272 -161.550844 19.640026 1.547069 33.674773 12.715447 -63.550830 -1.748723 -108.654739 79.760871 -101.983607 5.167444 -13.394326 -13.894767 0.005746 -0.000432 0.002609 -22.675100 -62.790335 17.617291 69.207919 80.729706 65.248457 -6.805273 -5.722183 -1.534658 0.001938 0.001009 0.000880
87.066782 126.398122 117.510250 176.439906 -18.594848 -3.764584 -0.999588 11.033907 3.192191 -0.090694 0.761424 0.226445 -0.150212 1.314288 0.389395 -0.933951 10.121416 2.932022 -2.263880 21.734863 -2.482794 -1.862344 -2.499789 -2.147072 -1.969274 7.661345 -5.520093 -12.780458 -7.979319 -1.183112 -152.459387 -67.971952 159.985369 -15.408942 -9.767396 -23.918957 -0.382017 9.187976 0.906324 22.397087 1.194736 -3.761621 140.986419 -63.005623 -161.553085 19.642079 1.546554 33.648942 12.723741 -63.546716 -1.760460 -108.688724 79.767512 -102.012366 5.158348 -13.407642 -13.897912 0.004050 -0.001960 0.001839 -22.657691 -62.788035 17.602647 69.203695 80.728108 65.245635 -6.808532 -5.723108 -1.533286 0.001071 0.001471 0.000486
87.067007 126.398475 117.510927 176.437546 -18.600214 -3.762095 -0.998869 11.035507 3.189205 -0.092467 0.756980 0.226311 -0.151175 1.311800 0.388540 -0.933536 10.122316 2.929998 -2.266393 21.746336 -2.478310 -1.859210 -2.478791 -2.141669 -1.964976 7.662212 -5.518081 -12.778936 -7.973163 -1.177286 -152.453160 -67.970573 159.983606 -15.421675 -9.754427 -23.906675 -0.382224 9.183685 0.908660 22.393203 1.163720 -3.754975 140.948877 -63.019527 -161.508839 19.642303 1.555605 33.654069 12.730888 -63.539565 -1.771853 -108.704358 79.775021 -102.022197 5.155188 -13.413710 -13.901884 0.002675 -0.002385 0.001215 -22.642595 -62.782943 17.589609 69.194737 80.726891 65.237424 -6.810015 -5.719842 -1.534094 0.000803 0.002196 0.000365
87.067028 126.398773 117.511673 176.436320 -18.605383 -3.758820 -1.003491 11.024591 3.184613 -0.089200 0.768834 0.226671 -0.151212 1.306438 0.388548 -0.942045 10.123548 2.924894 -2.256820 21.755853 -2.474916 -1.858475 -2.475870 -2.141294 -1.950064 7.658961 -5.513700 -12.785570 -7.963114 -1.172861 -152.455298 -67.971962 159.993053 -15.427696 -9.746430 -23.897094 -0.380785 9.185066 0.906572 22.401254 1.145916 -3.746868 140.936251 -63.021628 -161.498305 19.646235 1.566584 33.664332 12.734424 -63.532485 -1.785466 -108.716647 79.785053 -102.031090 5.172346 -13.423149 -13.908900 0.001877 -0.004312 0.000852 -22.630742 -62.778952 17.578136 69.195665 80.725987 65.235650 -6.810311 -5.715783 -1.531831 0.000373 0.002455 0.000170
87.067083 126.399036 117.512574 176.433215 -18.610152 -3.755274 -1.001009 11.023121 3.182018 -0.089632 0.769809 0.227079 -0.150810 1.306390 0.388110 -0.941205 10.099897 2.925695 -2.259001 21.784484 -2.476468 -1.855690 -2.458983 -2.141879 -1.952510 7.686434 -5.514901 -12.775836 -7.980068 -1.165445 -152.458307 -67.988043 159.990471 -15.426802 -9.741984 -23.893928 -0.388659 9.203428 0.904149 22.408286 1.143678 -3.741843 140.944189 -63.014272 -161.508234 19.655947 1.572745 33.658856 12.721128 -63.528972 -1.780603 -108.730861 79.792549 -102.052712 5.187834 -13.426121 -13.911714 0.000678 -0.006866 0.000308 -22.614410 -62.774929 17.565641 69.173686 80.724985 65.212787 -6.809515 -5.710779 -1.530552 0.001531 0.002310 0.000695
87.067437 126.399047 117.514321 176.431264 -18.610474 -3.754313 -0.999167 11.021492 3.181601 -0.092710 0.755014 0.226170 -0.147407 1.318289 0.388762 -0.943295 10.090584 2.925232 -2.252228 21.797607 -2.475998 -1.855873 -2.442100 -2.142123 -1.950839 7.693783 -5.514686 -12.771546 -7.980576 -1.165842 -152.460404 -67.988601 159.992119 -15.426935 -9.735866 -23.891218 -0.383194 9.205464 0.904154 22.408591 1.143267 -3.735573 140.946228 -63.006375 -161.521175 19.644643 1.561619 33.660346 12.713288 -63.528622 -1.774861 -108.706156 79.794671 -102.032022 5.179970 -13.420654 -13.907698 -0.000621 -0.006659 -0.000282 -22.613011 -62.777304 17.563031 69.177084 80.726922 65.217830 -6.809324 -5.707674 -1.531635 0.000758 0.000929 0.000344
87.068161 126.399116 117.516036 176.428295 -18.611689 -3.755590 -0.999421 11.015507 3.182829 -0.091759 0.757745 0.226143 -0.147682 1.313377 0.388433 -0.945693 10.088136 2.922989 -2.247442 21.810610 -2.475002 -1.848748 -2.415444 -2.143008 -1.948253 7.697355 -5.517047 -12.768282 -7.973803 -1.163849 -152.452703 -67.977379 160.003879 -15.424798 -9.725217 -23.868589 -0.378051 9.208599 0.907737 22.414926 1.129795 -3.731943 140.978181 -62.999588 -161.548532 19.663603 1.587405 33.670749 12.707462 -63.527721 -1.767933 -108.667323 79.784338 -101.992463 5.189017 -13.411367 -13.908146 0.000562 -0.007037 0.000255 -22.618075 -62.776213 17.569215 69.181970 80.728545 65.222628 -6.809789 -5.707264 -1.533105 0.000821 0.000510 0.000373
87.068612 126.399497 117.516806 176.426130 -18.618666 -3.756013 -1.002989 11.013006 3.181911 -0.089002 0.762416 0.226427 -0.150900 1.307912 0.387624 -0.942056 10.088721 2.919921 -2.242689 21.822369 -2.473404 -1.849196 -2.412651 -2.140657 -1.942637 7.696500 -5.514273 -12.760148 -7.971013 -1.167834 -152.448854 -67.984239 159.992445 -15.423177 -9.725888 -23.856787 -0.371281 9.210129 0.913753 22.424535 1.119946 -3.731257 140.953259 -63.011918 -161.531748 19.653520 1.573180 33.661722 12.688474 -63.518908 -1.749179 -108.607727 79.773535 -101.936979 5.197441 -13.400347 -13.908898 0.001907 -0.006075 0.000866 -22.620195 -62.768153 17.572158 69.162044 80.734117 65.198408 -6.801247 -5.704635 -1.532146 0.001304 0.000663 0.000592
87.069760 126.400361 117.516391 176.426563 -18.633043 -3.761579 -1.002647 11.009680 3.180582 -0.089611 0.771371 0.229450 -0.150882 1.307921 0.387488 -0.941223 10.087122 2.918700 -2.239262 21.833437 -2.472635 -1.844255 -2.397528 -2.137458 -1.938227 7.701211 -5.515825 -12.753324 -7.967562 -1.165800 -152.444880 -67.986755 159.991677 -15.417776 -9.729958 -23.865392 -0.363869 9.212641 0.921915 22.430984 1.104909 -3.731009 140.964073 -63.019797 -161.543574 19.651083 1.569238 33.665994 12.661782 -63.504966 -1.721525 -108.550180 79.755266 -101.882198 5.208406 -13.382561 -13.907218 0.001669 -0.006781 0.000758 -22.621047 -62.753458 17.571548 69.160498 80.739870 65.198910 -6.791463 -5.704057 -1.533293 0.002444 0.000308 0.001110
87.069981 126.400784 117.517059 176.424304 -18.640906 -3.762370 -1.001568 11.010287 3.179084 -0.086073 0.769808 0.228880 -0.150860 1.307570 0.387288 -0.945850 10.084569 2.917880 -2.236936 21.844032 -2.473547 -1.836100 -2.383124 -2.138993 -1.935468 7.701752 -5.517088 -12.751613 -7.963607 -1.168852 -152.439905 -67.989641 160.005393 -15.417628 -9.730738 -23.863456 -0.363661 9.214251 0.922771 22.436743 1.100099 -3.723635 140.996464 -63.015745 -161.569129 19.645897 1.564564 33.670704 12.651552 -63.496804 -1.710384 -108.507477 79.748258 -101.844107 5.215904 -13.363282 -13.901879 -0.000177 -0.005438 -0.000080 -22.623292 -62.746040 17.568728 69.157644 80.747811 65.199332 -6.777266 -5.705285 -1.535663 0.002221 0.000372 0.001009
